REM DIRINDEX 1\2\6,1\2\7,1\2\8,1\3\9,1\3\10,1\3\11,1\4\12,1\4\13,1\4\14,1\5\15,1\5\16,1\5\17,1\5\18
REM DIRNAME cjc019,folder01,folder02,folder03,folder04,folder05,folder06,folder07,folder08,folder09,folder10,folder11,folder12,folder13,folder14,folder15,folder16,folder17
TITLE ""
FILE "2Q_t_0176-0193.mp3" MP3
  TRACK 01 AUDIO
    TITLE "13:cjc019_2408"
    INDEX 01 00:00:00
  TRACK 02 AUDIO
    TITLE "0:"
    INDEX 01 00:01:01
  TRACK 03 AUDIO
    TITLE "14:cjc019_2409"
    INDEX 01 00:01:58
  TRACK 04 AUDIO
    TITLE "0:"
    INDEX 01 00:04:44
  TRACK 05 AUDIO
    TITLE "13:cjc019_2410"
    INDEX 01 00:05:22
  TRACK 06 AUDIO
    TITLE "0:"
    INDEX 01 00:06:37
  TRACK 07 AUDIO
    TITLE "14:cjc019_2411"
    INDEX 01 00:07:23
  TRACK 08 AUDIO
    TITLE "0:"
    INDEX 01 00:10:27
  TRACK 09 AUDIO
    TITLE "13:cjc019_2412"
    INDEX 01 00:11:11
  TRACK 10 AUDIO
    TITLE "0:"
    INDEX 01 00:12:22
  TRACK 11 AUDIO
    TITLE "14:cjc019_2413"
    INDEX 01 00:13:02
  TRACK 12 AUDIO
    TITLE "0:"
    INDEX 01 00:17:06
  TRACK 13 AUDIO
    TITLE "13:cjc019_2414"
    INDEX 01 00:17:51
  TRACK 14 AUDIO
    TITLE "0:"
    INDEX 01 00:19:05
  TRACK 15 AUDIO
    TITLE "14:cjc019_2415"
    INDEX 01 00:19:56
  TRACK 16 AUDIO
    TITLE "0:"
    INDEX 01 00:23:04
  TRACK 17 AUDIO
    TITLE "13:cjc019_2416"
    INDEX 01 00:23:59
  TRACK 18 AUDIO
    TITLE "0:"
    INDEX 01 00:25:01
  TRACK 19 AUDIO
    TITLE "14:cjc019_2417"
    INDEX 01 00:25:58
  TRACK 20 AUDIO
    TITLE "0:"
    INDEX 01 00:28:19
  TRACK 21 AUDIO
    TITLE "13:cjc019_2418"
    INDEX 01 00:29:01
  TRACK 22 AUDIO
    TITLE "0:"
    INDEX 01 00:30:24
  TRACK 23 AUDIO
    TITLE "14:cjc019_2419"
    INDEX 01 00:31:08
  TRACK 24 AUDIO
    TITLE "0:"
    INDEX 01 00:33:48
  TRACK 25 AUDIO
    TITLE "13:cjc019_2420"
    INDEX 01 00:34:30
  TRACK 26 AUDIO
    TITLE "0:"
    INDEX 01 00:35:43
  TRACK 27 AUDIO
    TITLE "14:cjc019_2421"
    INDEX 01 00:36:25
  TRACK 28 AUDIO
    TITLE "0:"
    INDEX 01 00:38:65
  TRACK 29 AUDIO
    TITLE "13:cjc019_2422"
    INDEX 01 00:39:41
  TRACK 30 AUDIO
    TITLE "0:"
    INDEX 01 00:40:50
  TRACK 31 AUDIO
    TITLE "14:cjc019_2423"
    INDEX 01 00:41:36
  TRACK 32 AUDIO
    TITLE "0:"
    INDEX 01 00:43:70
  TRACK 33 AUDIO
    TITLE "13:cjc019_2424"
    INDEX 01 00:44:48
  TRACK 34 AUDIO
    TITLE "0:"
    INDEX 01 00:45:71
  TRACK 35 AUDIO
    TITLE "14:cjc019_2425"
    INDEX 01 00:46:49
  TRACK 36 AUDIO
    TITLE "0:"
    INDEX 01 00:49:25
  TRACK 37 AUDIO
    TITLE "13:cjc019_2426"
    INDEX 01 00:50:07
  TRACK 38 AUDIO
    TITLE "0:"
    INDEX 01 00:51:15
  TRACK 39 AUDIO
    TITLE "14:cjc019_2427"
    INDEX 01 00:51:73
  TRACK 40 AUDIO
    TITLE "0:"
    INDEX 01 00:54:25
  TRACK 41 AUDIO
    TITLE "13:cjc019_2428"
    INDEX 01 00:55:06
  TRACK 42 AUDIO
    TITLE "0:"
    INDEX 01 00:56:55
  TRACK 43 AUDIO
    TITLE "14:cjc019_2429"
    INDEX 01 00:57:37
  TRACK 44 AUDIO
    TITLE "0:"
    INDEX 01 00:58:50
  TRACK 45 AUDIO
    TITLE "13:cjc019_2430"
    INDEX 01 00:59:26
  TRACK 46 AUDIO
    TITLE "0:"
    INDEX 01 01:00:47
  TRACK 47 AUDIO
    TITLE "14:cjc019_2431"
    INDEX 01 01:01:29
  TRACK 48 AUDIO
    TITLE "0:"
    INDEX 01 01:05:22
  TRACK 49 AUDIO
    TITLE "13:cjc019_2432"
    INDEX 01 01:06:04
  TRACK 50 AUDIO
    TITLE "0:"
    INDEX 01 01:07:47
  TRACK 51 AUDIO
    TITLE "14:cjc019_2433"
    INDEX 01 01:08:29
  TRACK 52 AUDIO
    TITLE "0:"
    INDEX 01 01:09:18
  TRACK 53 AUDIO
    TITLE "13:cjc019_2434"
    INDEX 01 01:10:02
  TRACK 54 AUDIO
    TITLE "0:"
    INDEX 01 01:11:39
  TRACK 55 AUDIO
    TITLE "14:cjc019_2435"
    INDEX 01 01:12:17
  TRACK 56 AUDIO
    TITLE "0:"
    INDEX 01 01:15:33
  TRACK 57 AUDIO
    TITLE "13:cjc019_2436"
    INDEX 01 01:16:12
  TRACK 58 AUDIO
    TITLE "0:"
    INDEX 01 01:17:39
  TRACK 59 AUDIO
    TITLE "14:cjc019_2437"
    INDEX 01 01:18:13
  TRACK 60 AUDIO
    TITLE "0:"
    INDEX 01 01:20:34
  TRACK 61 AUDIO
    TITLE "13:cjc019_2438"
    INDEX 01 01:21:16
  TRACK 62 AUDIO
    TITLE "0:"
    INDEX 01 01:22:31
  TRACK 63 AUDIO
    TITLE "14:cjc019_2439"
    INDEX 01 01:23:16
  TRACK 64 AUDIO
    TITLE "0:"
    INDEX 01 01:27:01
  TRACK 65 AUDIO
    TITLE "13:cjc019_2440"
    INDEX 01 01:27:53
  TRACK 66 AUDIO
    TITLE "0:"
    INDEX 01 01:28:65
  TRACK 67 AUDIO
    TITLE "14:cjc019_2441"
    INDEX 01 01:29:46
  TRACK 68 AUDIO
    TITLE "0:"
    INDEX 01 01:32:27
  TRACK 69 AUDIO
    TITLE "13:cjc019_2442"
    INDEX 01 01:33:07
  TRACK 70 AUDIO
    TITLE "0:"
    INDEX 01 01:34:34
  TRACK 71 AUDIO
    TITLE "14:cjc019_2443"
    INDEX 01 01:35:16
  TRACK 72 AUDIO
    TITLE "0:"
    INDEX 01 01:37:42
